<?xml version="1.0" encoding="UTF-8" standalone="no"?>
<svg
   width="24"
   height="24"
   viewBox="0 0 24 24"
   fill="none"
   stroke="currentColor"
   stroke-width="2"
   stroke-linecap="round"
   stroke-linejoin="round"
   class="lucide lucide-music4-icon lucide-music-4"
   version="1.1"
   id="svg10"
   sodipodi:docname="vite.svg"
   inkscape:version="1.1.2 (0a00cf5339, 2022-02-04)"
   xmlns:inkscape="http://www.inkscape.org/namespaces/inkscape"
   xmlns:sodipodi="http://sodipodi.sourceforge.net/DTD/sodipodi-0.dtd"
   xmlns:xlink="http://www.w3.org/1999/xlink"
   xmlns="http://www.w3.org/2000/svg"
   xmlns:svg="http://www.w3.org/2000/svg">
  <defs
     id="defs14">
    <linearGradient
       inkscape:collect="always"
       id="linearGradient3636">
      <stop
         style="stop-color:#bf6fe8;stop-opacity:1"
         offset="0"
         id="stop3632" />
      <stop
         style="stop-color:#808fe1;stop-opacity:1"
         offset="1"
         id="stop3634" />
    </linearGradient>
    <linearGradient
       inkscape:collect="always"
       xlink:href="#linearGradient3636"
       id="linearGradient3638"
       x1="0.7225852"
       y1="12.920608"
       x2="23.68408"
       y2="12.920608"
       gradientUnits="userSpaceOnUse"
       gradientTransform="matrix(0.95904193,0,0,1,0.49224849,-25.044586)" />
    <clipPath
       clipPathUnits="userSpaceOnUse"
       id="clipPath4365">
      <g
         id="g4375"
         style="stroke:none"
         transform="rotate(-90)">
        <path
           style="color:#000000;fill:#000000;stroke:none;-inkscape-stroke:none"
           d="m 20.835937,2.0136719 -11.9999995,2 A 1.0001,1.0001 0 0 0 8,5 v 13 a 1,1 0 0 0 1,1 1,1 0 0 0 1,-1 V 5.8476562 L 20,4.1796875 V 16 a 1,1 0 0 0 1,1 1,1 0 0 0 1,-1 V 3 A 1.0001,1.0001 0 0 0 20.835937,2.0136719 Z"
           id="path4367" />
        <path
           style="color:#000000;fill:#000000;stroke:none;-inkscape-stroke:none"
           d="m 20.835937,6.0136719 -11.9999995,2 A 1,1 0 0 0 8.0136719,9.1640625 1,1 0 0 0 9.1640625,9.9863281 l 11.9999995,-2 A 1,1 0 0 0 21.986328,6.8359375 1,1 0 0 0 20.835937,6.0136719 Z"
           id="path4369" />
        <path
           style="color:#000000;fill:#000000;stroke:none;-inkscape-stroke:none"
           d="m 6,14 c -2.1972922,0 -4,1.802708 -4,4 0,2.197292 1.8027078,4 4,4 2.1972922,0 4,-1.802708 4,-4 0,-2.197292 -1.8027078,-4 -4,-4 z m 0,2 c 1.116413,0 2,0.883587 2,2 0,1.116413 -0.883587,2 -2,2 -1.116413,0 -2,-0.883587 -2,-2 0,-1.116413 0.883587,-2 2,-2 z"
           id="path4371" />
        <path
           style="color:#000000;fill:#000000;stroke:none;-inkscape-stroke:none"
           d="m 18,12 c -2.197292,0 -4,1.802708 -4,4 0,2.197292 1.802708,4 4,4 2.197292,0 4,-1.802708 4,-4 0,-2.197292 -1.802708,-4 -4,-4 z m 0,2 c 1.116413,0 2,0.883587 2,2 0,1.116413 -0.883587,2 -2,2 -1.116413,0 -2,-0.883587 -2,-2 0,-1.116413 0.883587,-2 2,-2 z"
           id="path4373" />
      </g>
    </clipPath>
  </defs>
  <sodipodi:namedview
     id="namedview12"
     pagecolor="#ffffff"
     bordercolor="#666666"
     borderopacity="1.0"
     inkscape:pageshadow="2"
     inkscape:pageopacity="0.0"
     inkscape:pagecheckerboard="0"
     showgrid="false"
     inkscape:zoom="33.208333"
     inkscape:cx="12.030113"
     inkscape:cy="8.3412799"
     inkscape:window-width="1920"
     inkscape:window-height="1043"
     inkscape:window-x="3000"
     inkscape:window-y="344"
     inkscape:window-maximized="1"
     inkscape:current-layer="svg10" />
  <rect
     style="mix-blend-mode:overlay;fill:url(#linearGradient3638);fill-opacity:1;fill-rule:nonzero;stroke:none;stroke-width:3.722;stroke-linecap:round;stroke-linejoin:round;stroke-miterlimit:10;stroke-dasharray:none"
     id="rect853"
     width="22.021"
     height="21.76473"
     x="1.1852376"
     y="-23.006342"
     rx="3.7531626"
     transform="rotate(90)"
     clip-path="url(#clipPath4365)" />
</svg>
